# xmcd
#
# Track frame offsets: 
#        150
#        18435
#        31012
#        48517
#        59447
#        76100
#        92617
#        108257
#        121947
#        134862
#        151555
#        163547
#        177412
#        195570
#        210650
#        226070
#
# Disc length: 3186 seconds
#
# Revision: 0
# Processed by: cddbd v1.5.1PL0 Copyright (c) Steve Scherf et al.
# Submitted via: ExactAudioCopy v0.95a5
#
DISCID=c20c7010
DTITLE=Dueto Viejo Tolima - Clasicos Inolvidables
DYEAR=1997
DGENRE=Colombiana
TTITLE0=mi niña se va
TTITLE1=cuando voy por la calle
TTITLE2=ibagué sueño encantado
TTITLE3=a mi colombia
TTITLE4=el bunde tolimense
TTITLE5=coplas natagaimunas
TTITLE6=quiere ahora
TTITLE7=tus quince primaveras
TTITLE8=el regreso
TTITLE9=llegamos tarde
TTITLE10=ojos mios
TTITLE11=el guacirqueño
TTITLE12=collar de lagrimas
TTITLE13=te estoy dejando de querer
TTITLE14=el aguacate
TTITLE15=ojalá no crecieras
EXTD=
EXTT0=
EXTT1=
EXTT2=
EXTT3=
EXTT4=
EXTT5=
EXTT6=
EXTT7=
EXTT8=
EXTT9=
EXTT10=
EXTT11=
EXTT12=
EXTT13=
EXTT14=
EXTT15=
PLAYORDER=
